<svg fill="none" height="400" viewBox="0 0 1041 400" width="1041" xmlns="http://www.w3.org/2000/svg" xmlns:xlink="http://www.w3.org/1999/xlink"><clipPath id="a"><path d="m.229736 0h1040v400h-1040z"/></clipPath><mask id="b" fill="#fff"><path clip-rule="evenodd" d="m816.418 76.9705c0-1.1046-.895-2-2-2h-123.13c-1.104 0-2 .8954-2 2v156.9085c0 1.104.896 2 2 2h123.13c1.105 0 2-.896 2-2zm-37.463 118.3745v-79.84h-52.204v79.84z" fill="#fff" fill-rule="evenodd"/></mask><mask id="c" fill="#fff"><rect fill="#fff" height="334.643" rx="1.12683" width="270.666" x="389.557" y="26.2916"/></mask><mask id="d" fill="#fff"><rect fill="#fff" height="334.643" rx="1.12683" width="270.666" x="389.557" y="26.2916"/></mask><mask id="e" fill="#fff"><rect fill="#fff" height="334.643" rx="1.12683" width="270.666" x="389.557" y="26.2916"/></mask><mask id="f" fill="#fff"><path clip-rule="evenodd" d="m893.987 141.548c29.155 0 52.789-28.361 52.789-63.3467 0-34.9855-23.634-63.3468-52.789-63.3468-29.154 0-52.789 28.3613-52.789 63.3468 0 34.9857 23.635 63.3467 52.789 63.3467zm0-26.642c15.483 0 28.034-16.4335 28.034-36.7049s-12.551-36.7047-28.034-36.7047-28.034 16.4333-28.034 36.7047 12.551 36.7049 28.034 36.7049z" fill="#fff" fill-rule="evenodd"/></mask><g clip-path="url(#a)"><path d="m0 0h1040v400h-1040z" fill="#fff" transform="translate(.229736)"/><path d="m.229736 0h1040.000264v400h-1040.000264z" fill="#33103f"/><path d="m726.475 113.179h56.6544v84.4912h-56.6544z" fill="#33103f"/><path clip-rule="evenodd" d="m766.688 132.733c6.565 6.565 6.565 17.208 0 23.772-.996.996-2.086 1.841-3.242 2.535v5.029l-2.161 2.161v4.322l2.161 2.161-2.161 2.161v4.323l2.161 2.161-6.483 6.483h-4.322l-6.483-6.483v-22.318c-1.156-.694-2.246-1.539-3.242-2.535-6.564-6.564-6.564-17.207 0-23.772 6.565-6.564 17.208-6.564 23.772 0z" fill="#ffe3ac" fill-rule="evenodd"/><path clip-rule="evenodd" d="m766.688 132.733c6.565 6.565 6.565 17.208 0 23.772-.996.996-2.086 1.841-3.242 2.535v5.029l-2.161 2.161v4.322l2.161 2.161-2.161 2.161v4.323l2.161 2.161-6.483 6.483h-4.322l-6.483-6.483v-22.318c-1.156-.694-2.246-1.539-3.242-2.535-6.564-6.564-6.564-17.207 0-23.772 6.565-6.564 17.208-6.564 23.772 0zm-4.754 25.406v5.282l-2.161 2.161v5.619l1.513 1.512-1.513 1.513v5.619l1.513 1.513-4.971 4.97h-3.025l-5.619-5.619v-22.57c-1.322-.698-2.562-1.602-3.674-2.714-5.968-5.968-5.968-15.643 0-21.611s15.643-5.968 21.611 0c5.967 5.968 5.967 15.643 0 21.611-1.112 1.112-2.353 2.016-3.674 2.714z" fill="#ffaa05" fill-rule="evenodd"/><path clip-rule="evenodd" d="m763.446 153.264c4.775-4.775 4.775-12.515 0-17.289-4.774-4.774-12.514-4.774-17.288 0s-4.774 12.514 0 17.289c4.774 4.774 12.514 4.774 17.288 0z" fill="#ffaa05" fill-rule="evenodd"/><path clip-rule="evenodd" d="m756.963 164.069v23.772l6.484-6.483v-.001l-.001.001-2.161-2.161v-4.323l2.161-2.161-2.161-2.161v-4.322l2.161-2.161z" fill="#ffaa05" fill-rule="evenodd"/><path clip-rule="evenodd" d="m750.48 185.68v-25.933h2.161v28.094z" fill="#ffaa05" fill-rule="evenodd"/><path clip-rule="evenodd" d="m816.418 76.9705c0-1.1046-.895-2-2-2h-123.13c-1.104 0-2 .8954-2 2v156.9085c0 1.104.896 2 2 2h123.13c1.105 0 2-.896 2-2zm-37.463 118.3745v-79.84h-52.204v79.84z" fill="#ffd480" fill-rule="evenodd"/><path d="m814.418 74.9705v5.2234zm-123.13 0v-5.2235zm87.667 40.5345h5.223v-5.224h-5.223zm0 79.84v5.223h5.223v-5.223zm-52.204-79.84v-5.224h-5.223v5.224zm0 79.84h-5.223v5.223h5.223zm87.667-115.1511c-1.78 0-3.223-1.4432-3.223-3.2234h10.447c0-3.9895-3.234-7.2235-7.224-7.2235zm-123.13 0h123.13v-10.4469h-123.13zm3.224-3.2234c0 1.7802-1.443 3.2234-3.224 3.2234v-10.4469c-3.989 0-7.223 3.2341-7.223 7.2235zm0 156.9085v-156.9085h-10.447v156.9085zm-3.224-3.224c1.781 0 3.224 1.444 3.224 3.224h-10.447c0 3.989 3.234 7.223 7.223 7.223zm123.13 0h-123.13v10.447h123.13zm-3.223 3.224c0-1.78 1.443-3.224 3.223-3.224v10.447c3.99 0 7.224-3.234 7.224-7.223zm0-156.9085v156.9085h10.447v-156.9085zm-37.464 38.5345v79.84h10.447v-79.84zm-46.98 5.223h52.204v-10.447h-52.204zm5.224 74.617v-79.84h-10.447v79.84zm46.98-5.223h-52.204v10.446h52.204z" fill="#ffaa05" mask="url(#b)"/><path d="m787.063 107.319h96.2742v68.3708h-96.2742z" stroke="#ffe3ac" stroke-width="5.66962" transform="matrix(0 1 -1 0 894.382 -679.744)"/><path d="m415.299 56.061h218.236v275.058h-218.236z" fill="#33103f"/><rect fill="#fffaef" height="193.636" rx="1.18576" width="141.912" x="453.935" y="97.7521"/><path d="m466.193 260.804h25.552m-28.997 3.159h21.963" stroke="#0a2d4d" stroke-linecap="round" stroke-width="1.28539"/><path d="m497 261h47" stroke="#0a2d4d" stroke-linecap="round" stroke-width=".428463"/><path d="m466.193 247.35h25.552m-28.997 3.158h21.963" stroke="#0a2d4d" stroke-linecap="round" stroke-width="1.28539"/><path d="m497 248h53" stroke="#0a2d4d" stroke-linecap="round" stroke-width=".428463"/><path d="m509.982 247.8c1.495.62 2.65.85 4.213.638 1.543-.232 3.112-1.058 4.502-2.071 1.304-.84 2.258-1.963 3.163-3.222.446-.614.797-1.292 1.041-2.01.227-.696.303-1.47 0-2.01-.302-.541-1.008-.768-1.722-.782-.699-.02-1.381.216-1.92.663-1.08.893-1.678 2.395-1.743 3.847s.432 2.95 1.524 3.829c1.091.879 2.622 1.11 4.099.94.751-.085 1.493-.241 2.216-.464.713-.202 1.397-.499 2.031-.883.586-.321 1.035-.843 1.265-1.47.079-.277.069-.572-.029-.843-.089-.261-.267-.482-.504-.623-.086-.057-.187-.088-.29-.088-.104 0-.205.031-.29.088-.218.175-.372.417-.436.688-.182.706-.23 1.439-.141 2.162 0 .093 0 .187.025.281v.144c0 .05 0 .09.018.119.019.118.066.231.137.327.2.214.462.358.75.411.724.14 1.466.162 2.197.065 1.545-.181 3.072-.499 4.561-.951 1.511-.5 3.052-.905 4.614-1.214 1.578-.267 3.285-.256 4.78.418.368.17.719.373 1.049.609.323.238.624.507.897.803.536.59.982 1.255 1.325 1.974-.392-.68-.877-1.302-1.441-1.848-.281-.267-.586-.508-.911-.72-.326-.206-.671-.38-1.03-.519-1.441-.562-3.044-.461-4.554-.148-1.524.368-3.028.821-4.503 1.355-1.524.51-3.091.882-4.683 1.113-.836.129-1.689.115-2.521-.04-.494-.092-.944-.345-1.279-.72-.172-.217-.288-.473-.339-.746-.012-.057-.02-.115-.025-.173l-.021-.151c0-.105-.026-.206-.033-.306-.115-.851-.068-1.715.141-2.547.125-.503.422-.947.839-1.254.251-.168.548-.257.85-.256.286.005.566.082.814.224.441.266.783.671.971 1.151s.213 1.008.07 1.504c-.132.458-.368.881-.688 1.235-.298.33-.64.619-1.016.858-.714.443-1.488.784-2.298 1.012-.789.239-1.598.404-2.417.493-.841.097-1.691.065-2.522-.097-.864-.168-1.674-.548-2.356-1.106-.679-.573-1.19-1.32-1.477-2.161-.291-.807-.414-1.666-.36-2.522.048-.849.252-1.682.602-2.457.348-.795.887-1.492 1.57-2.028.71-.549 1.593-.826 2.49-.781.444.016.883.112 1.293.284.216.09.417.211.598.36.181.163.334.354.454.566.212.413.305.877.27 1.34-.028.429-.118.851-.267 1.254-.288.776-.691 1.504-1.196 2.161-.979 1.29-2.051 2.58-3.45 3.397-1.477.951-3.081 1.604-4.684 1.777-1.587.149-2.807-.161-4.223-.879z" fill="#0a2d4d" stroke="#0a2d4d" stroke-linecap="round" stroke-linejoin="round" stroke-width=".428463"/><path clip-rule="evenodd" d="m565.915 244.148c.064-.197.344-.197.408 0l1.544 4.79 2.732-4.227c.112-.174.383-.102.393.106l.253 5.026 3.732-3.375c.154-.14.397 0 .353.203l-1.057 4.92 4.478-2.294c.185-.095.383.103.289.288l-2.295 4.479 4.921-1.057c.203-.044.343.199.203.353l-2.793 3.089 4.164-.009c.208 0 .295.266.126.388l-4.077 2.949 4.864 1.291c.201.054.215.334.021.408l-4.702 1.793 4.363 2.506c.181.104.123.378-.084.399l-5.006.515 3.566 3.55c.147.147.02.397-.185.364l-4.968-.798 2.526 4.352c.104.18-.083.388-.273.303l-3.803-1.703 1.296 3.959c.065.198-.161.362-.329.24l-4.065-2.967.275 5.025c.011.207-.251.308-.381.146l-3.158-3.918-1.036 4.925c-.043.203-.321.233-.405.042l-2.037-4.601-2.275 4.488c-.094.186-.37.142-.403-.063l-.776-4.971-3.358 3.746c-.139.155-.395.041-.373-.166l.445-4.142-3.365 2.456c-.168.122-.395-.042-.33-.24l1.565-4.782-4.693 1.814c-.194.075-.371-.143-.257-.317l2.75-4.214-5.003.537c-.207.022-.321-.234-.166-.373l3.747-3.359-4.972-.776c-.206-.032-.25-.309-.064-.403l4.488-2.275-4.6-2.036c-.191-.084-.161-.363.042-.406l4.076-.857-3.375-2.441c-.169-.122-.082-.388.126-.388l5.032.011-3.175-3.903c-.132-.162.021-.397.222-.342l4.857 1.312-2.057-4.592c-.085-.19.124-.377.304-.273l4.352 2.526-.798-4.968c-.033-.206.216-.333.363-.186l3.551 3.567.515-5.006c.021-.207.295-.265.399-.085l2.074 3.612z" fill="#ffd480" fill-rule="evenodd"/><circle cx="566.155" cy="262.17" r="11.7275" stroke="#ffe3ac"/><path d="m485.125 131.482h100.631" stroke="#0a2d4d" stroke-linecap="round" stroke-width="1.28539"/><path d="m464.025 137.492h117.359" stroke="#0a2d4d" stroke-linecap="round" stroke-width="1.28539"/><path d="m465.4 143.501h118.166" stroke="#0a2d4d" stroke-linecap="round" stroke-width="1.28539"/><path d="m464.025 149.51h103.286" stroke="#0a2d4d" stroke-linecap="round" stroke-width="1.28539"/><path d="m483.116 161.529h102.64" stroke="#0a2d4d" stroke-linecap="round" stroke-width="1.28539"/><path d="m464.025 167.538h121.73" stroke="#0a2d4d" stroke-linecap="round" stroke-width="1.28539"/><path d="m464.025 173.547h117.359" stroke="#0a2d4d" stroke-linecap="round" stroke-width="1.28539"/><path d="m464.025 179.557h71.415" stroke="#0a2d4d" stroke-linecap="round" stroke-width="1.28539"/><path d="m483.116 191.575h102.64" stroke="#0a2d4d" stroke-linecap="round" stroke-width="1.28539"/><path d="m464.025 197.584h115.523" stroke="#0a2d4d" stroke-linecap="round" stroke-width="1.28539"/><path d="m464.025 203.594h119.541" stroke="#0a2d4d" stroke-linecap="round" stroke-width="1.28539"/><path d="m464.025 209.603h121.73" stroke="#0a2d4d" stroke-linecap="round" stroke-width="1.28539"/><path d="m464.025 215.612h113.379" stroke="#0a2d4d" stroke-linecap="round" stroke-width="1.28539"/><path d="m464.025 221.621h117.359" stroke="#0a2d4d" stroke-linecap="round" stroke-width="1.28539"/><path d="m464.025 227.63h51.643" stroke="#0a2d4d" stroke-linecap="round" stroke-width="1.28539"/><path d="m476.232 113.923c-.617.603-1.231 1.193-1.841 1.769s-1.223 1.172-1.84 1.789c-.021.178-.072.339-.155.483-.075.144-.174.268-.298.37-.123.103-.26.182-.411.237-.144.055-.292.082-.442.082-.103 0-.155-.041-.155-.123 0-.048.011-.082.031-.103.028-.021.055-.048.082-.082.028-.028.052-.069.072-.124.028-.055.042-.14.042-.257 0-.274-.048-.51-.144-.709-.089-.192-.213-.35-.371-.473-.157-.117-.346-.203-.565-.257-.219-.055-.453-.083-.699-.083-.144 0-.305.014-.484.041-.171.021-.353.045-.545.072-.185.028-.373.052-.565.072-.199.028-.391.042-.576.042-.35 0-.525-.086-.525-.258 0-.075.038-.14.114-.195.068-.055.181-.082.339-.082.164 0 .35.007.555.02.199.014.394.031.586.052.199.02.388.038.566.051.178.014.322.021.432.021.205 0 .415-.086.627-.257.219-.172.432-.388.638-.648.212-.267.418-.562.617-.884.198-.33.377-.648.534-.957.165-.308.305-.589.422-.843.123-.254.216-.442.278-.566-.186-.034-.371-.089-.556-.164-.178-.082-.339-.185-.483-.309-.137-.13-.25-.277-.339-.442-.083-.171-.124-.36-.124-.565 0-.391.113-.689.34-.895.233-.212.503-.319.812-.319.13 0 .247.014.35.041.109.028.192.055.246.083l-.03.102c-.096-.034-.189-.058-.278-.071-.089-.021-.185-.031-.288-.031-.322 0-.576.106-.761.318-.178.213-.267.47-.267.772 0 .185.041.356.123.514.082.157.189.295.319.411.137.117.291.216.463.298.171.076.342.127.514.155.185-.391.428-.761.73-1.111.308-.35.651-.651 1.028-.905.384-.26.792-.466 1.224-.617s.867-.226 1.306-.226c.199 0 .391.02.576.062.185.041.353.109.503.205.151.089.271.206.36.35.09.144.134.322.134.535 0 .24-.065.459-.195.658-.131.192-.305.363-.525.514-.212.151-.459.281-.74.391-.274.109-.559.198-.854.267-.288.069-.575.12-.863.154-.288.035-.549.052-.782.052-.096 0-.195-.004-.298-.011-.103-.006-.206-.017-.309-.03-.246.486-.483.904-.709 1.254-.22.35-.435.651-.648.905-.206.247-.411.456-.617.627-.206.172-.422.326-.648.463-.226.13-.463.254-.709.37-.247.11-.518.233-.813.37v.021c.254 0 .528.007.823.021.302.006.586.041.853.102.275.062.511.161.71.299.206.144.339.346.401.606.165-.178.387-.408.668-.689.288-.274.597-.569.926-.884.336-.315.679-.634 1.028-.956.35-.329.675-.638.977-.926zm1.111-3.949c0-.205-.055-.37-.165-.493-.11-.131-.261-.196-.452-.196-.192 0-.384.052-.576.155-.192.096-.381.226-.566.39-.178.165-.353.353-.524.566-.165.206-.319.418-.463.637-.144.213-.274.422-.391.628-.11.205-.199.387-.267.545.075.013.154.02.236.02h.288c.583 0 1.059-.089 1.43-.267.377-.178.671-.387.884-.627.212-.24.36-.487.442-.741.082-.26.124-.466.124-.617zm3.48 2.91c-.076.11-.175.251-.299.422-.116.171-.243.356-.38.555s-.274.408-.411.628c-.137.212-.264.421-.381.627-.109.205-.202.397-.277.576-.069.178-.103.329-.103.452 0 .199.079.298.236.298.144 0 .312-.068.504-.205.199-.137.415-.319.648-.545.233-.233.476-.504.73-.813.254-.308.511-.634.771-.977l.062.042c-.274.349-.542.692-.802 1.028-.261.329-.521.624-.782.884-.253.254-.51.46-.771.617-.253.158-.514.237-.781.237-.233 0-.412-.038-.535-.113-.123-.076-.216-.168-.278-.278-.055-.117-.089-.237-.103-.36-.006-.123-.01-.233-.01-.329l-.031-.021c-.109.131-.229.261-.36.391-.123.13-.26.25-.411.36-.151.103-.308.185-.473.247-.164.068-.339.103-.524.103-.329 0-.58-.096-.751-.288-.165-.199-.247-.514-.247-.946 0-.302.076-.61.226-.926.151-.322.364-.613.638-.874.281-.267.613-.487.997-.658s.806-.257 1.265-.257c.268 0 .47.069.607.206.144.13.236.294.278.493h.02l.267-.534zm-4.083 3.373c.144 0 .329-.092.556-.277.226-.185.449-.422.668-.71s.408-.6.566-.936c.157-.342.236-.668.236-.977 0-.157-.048-.274-.144-.349-.089-.082-.192-.124-.308-.124-.144 0-.292.048-.443.144-.144.096-.287.227-.431.391-.138.158-.271.339-.401.545-.124.199-.234.405-.33.617-.096.206-.171.411-.226.617s-.082.387-.082.545c0 .117.021.233.062.35.048.109.14.164.277.164zm9.396-2.324c-.254.377-.525.734-.813 1.07-.281.336-.596.63-.946.884-.349.254-.74.456-1.172.607-.432.144-.926.216-1.481.216-.206 0-.401-.021-.586-.062-.178-.041-.332-.106-.463-.195-.13-.089-.233-.203-.308-.34-.076-.144-.113-.312-.113-.504 0-.253.082-.452.246-.596.158-.151.343-.226.556-.226.144 0 .267.041.37.123s.154.206.154.37c0 .151-.044.264-.133.34-.09.075-.189.113-.299.113-.082 0-.151-.01-.205-.031-.035.055-.052.12-.052.195 0 .22.058.391.175.514.117.117.288.175.514.175.295 0 .514-.085.658-.257.144-.171.216-.377.216-.617 0-.144-.044-.284-.133-.421-.09-.137-.189-.275-.299-.412-.102-.144-.198-.284-.288-.421-.089-.144-.133-.288-.133-.432 0-.165.037-.322.113-.473.075-.151.185-.285.329-.401.151-.124.332-.22.545-.288.212-.069.456-.103.73-.103.398 0 .72.069.967.206.253.13.38.322.38.576 0 .191-.065.349-.195.473-.131.116-.285.174-.463.174-.158 0-.305-.041-.442-.123.048-.075.086-.154.113-.237.027-.082.041-.174.041-.277 0-.172-.041-.326-.123-.463-.076-.137-.203-.206-.381-.206-.157 0-.281.055-.37.165s-.134.254-.134.432c0 .171.052.332.155.483.102.144.212.288.329.432.123.144.236.295.339.452.103.158.154.336.154.535 0 .233-.055.432-.164.597-.103.157-.264.298-.484.421l.021.021c.295-.082.583-.209.864-.381.288-.178.562-.384.822-.617.261-.233.501-.483.72-.75.226-.275.425-.549.597-.823zm-.759-.802.072-.164h.853l.875-1.491 1.429-.052-.926 1.543h1.409l-.082.164h-1.419c-.096.165-.23.381-.401.648-.165.267-.329.545-.494.833-.164.288-.308.566-.432.833-.123.267-.185.487-.185.658 0 .117.031.202.093.257.068.055.161.082.277.082.179 0 .367-.048.566-.144.199-.102.398-.233.596-.39.206-.158.401-.333.587-.525.192-.199.37-.394.534-.586.172-.192.326-.37.463-.535.137-.171.247-.308.329-.411l.082.041c-.233.274-.48.576-.74.905-.261.329-.542.638-.843.926-.302.281-.628.517-.977.709-.35.185-.73.278-1.142.278-.315 0-.551-.083-.709-.247-.151-.171-.226-.391-.226-.658 0-.137.017-.271.051-.401.041-.137.11-.302.206-.494.096-.199.223-.439.38-.72.158-.281.36-.634.607-1.059zm12.361-3.805c-.294.192-.541.439-.74.741-.199.295-.377.624-.535.987-.15.363-.291.754-.421 1.172-.13.412-.278.83-.442 1.255-.158.418-.347.833-.566 1.244-.212.411-.48.799-.802 1.162l.021.021c.493-.288.935-.587 1.326-.895.391-.315.758-.662 1.1-1.039.343-.384.669-.809.977-1.275.316-.466.641-.994.977-1.583.185-.329.394-.61.627-.844.233-.239.456-.435.669-.586.212-.15.401-.26.565-.329.172-.075.288-.113.35-.113.075 0 .13.024.165.072.034.048.051.1.051.154 0 .096-.048.185-.144.268-.096.082-.206.157-.329.226s-.243.134-.36.195c-.117.062-.199.124-.247.185-.103.138-.199.34-.288.607-.089.268-.185.576-.288.926-.096.349-.202.723-.318 1.12-.11.398-.24.792-.391 1.183-.144.391-.312.768-.504 1.131-.185.357-.405.669-.658.936l.02.021c.35-.192.72-.405 1.111-.638s.778-.487 1.162-.761c.384-.281.751-.586 1.1-.915.35-.329.655-.682.915-1.059.268-.377.48-.778.638-1.203.158-.432.237-.892.237-1.378-.076-.055-.138-.124-.186-.206-.041-.089-.061-.202-.061-.339 0-.158.058-.299.175-.422.123-.123.263-.185.421-.185.124 0 .233.027.329.082s.175.127.237.216c.068.089.116.192.144.309.034.109.051.222.051.339 0 .377-.086.754-.257 1.131-.165.377-.384.744-.658 1.1-.274.357-.59.7-.946 1.029-.357.329-.727.641-1.111.935-.377.288-.75.556-1.121.803-.37.239-.709.449-1.018.627-.301.178-.558.325-.771.442-.212.11-.349.182-.411.216-.213.11-.367.188-.463.236s-.171.09-.226.124l-.216-.124c.164-.185.302-.455.411-.812.11-.356.213-.744.309-1.162.103-.425.212-.853.329-1.285.116-.432.264-.809.442-1.131l-.021-.021c-.438.72-.874 1.316-1.306 1.789-.425.466-.819.843-1.182 1.131-.357.288-.662.501-.915.638-.247.13-.408.223-.484.278-.034.027-.092.078-.174.154-.076.075-.165.154-.268.236-.096.083-.199.155-.308.216-.103.062-.199.093-.288.093-.062 0-.106-.017-.134-.052-.027-.034-.041-.075-.041-.123 0-.055.017-.096.051-.123.035-.035.076-.069.124-.103.055-.034.109-.076.164-.124s.1-.109.134-.185c.185-.384.332-.768.442-1.151.11-.391.216-.775.319-1.152s.216-.751.339-1.121c.124-.37.288-.73.494-1.08.212-.356.48-.702.802-1.038s.733-.658 1.234-.967l-.021-.02-1.943.596c-.754.233-1.347.511-1.779.833-.425.322-.638.699-.638 1.131 0 .185.059.357.175.514.117.158.285.237.504.237.137 0 .254-.024.35-.072.096-.055.174-.124.236-.206s.106-.171.134-.267c.027-.103.041-.199.041-.288 0-.083-.003-.161-.01-.237-.007-.082-.021-.164-.041-.247h.102c.021.076.038.155.052.237.014.075.02.158.02.247 0 .377-.126.672-.38.884-.254.213-.569.319-.946.319-.144 0-.278-.028-.401-.082-.124-.062-.23-.141-.319-.237s-.158-.206-.206-.329c-.048-.13-.072-.264-.072-.401 0-.267.072-.504.216-.71.144-.212.329-.397.556-.555.233-.164.497-.305.791-.421.295-.124.593-.23.895-.319.309-.096.603-.178.884-.247s.528-.134.741-.195c.397-.117.723-.213.977-.288.26-.083.473-.165.637-.247zm6.695 3.558c-.22.35-.436.689-.648 1.018-.213.329-.401.638-.566.926-.164.281-.298.531-.401.751-.096.219-.144.394-.144.524 0 .096.018.178.052.247.034.061.096.092.185.092.137 0 .284-.048.442-.144.165-.102.333-.229.504-.38.171-.158.343-.333.514-.525.171-.198.333-.39.483-.575.151-.192.285-.371.401-.535.124-.171.223-.309.299-.411l.082.03c-.165.233-.37.518-.617.854-.247.329-.525.651-.833.967-.315.322-.607.569-.874.74-.267.164-.566.247-.895.247-.281 0-.493-.079-.637-.237-.144-.164-.216-.391-.216-.678 0-.309.13-.693.391-1.152.267-.466.603-1.039 1.007-1.717zm-.525-1.604c0-.199.069-.367.206-.504.144-.144.315-.216.514-.216s.367.072.504.216c.144.137.216.305.216.504s-.072.37-.216.514c-.137.137-.305.206-.504.206s-.37-.069-.514-.206c-.137-.144-.206-.315-.206-.514zm5.454-1.954c-.686 1.138-1.272 2.102-1.759 2.89-.486.788-.887 1.45-1.203 1.985-.308.527-.538.949-.689 1.264-.144.309-.216.556-.216.741 0 .075.021.134.062.175.048.041.099.061.154.061.158 0 .357-.085.597-.257.24-.178.486-.397.74-.658.26-.26.511-.538.751-.833.24-.301.438-.576.596-.822l.082.041c-.048.068-.126.185-.236.349-.11.165-.247.353-.411.566-.165.206-.35.418-.556.637-.199.22-.411.422-.637.607-.22.185-.449.339-.689.463-.233.116-.466.175-.7.175-.287 0-.503-.072-.647-.216s-.216-.326-.216-.545c0-.151.024-.309.072-.473.048-.172.123-.37.226-.597.11-.233.25-.504.421-.812.179-.315.395-.689.648-1.121.261-.432.562-.936.905-1.512.35-.575.747-1.244 1.193-2.005zm2.862 0c-.686 1.138-1.272 2.102-1.759 2.89-.486.788-.887 1.45-1.203 1.985-.308.527-.538.949-.689 1.264-.144.309-.216.556-.216.741 0 .075.021.134.062.175.048.041.099.061.154.061.158 0 .357-.085.597-.257.24-.178.486-.397.74-.658.26-.26.511-.538.751-.833.24-.301.438-.576.596-.822l.082.041c-.048.068-.126.185-.236.349-.11.165-.247.353-.411.566-.165.206-.35.418-.556.637-.199.22-.411.422-.637.607-.22.185-.449.339-.689.463-.233.116-.466.175-.7.175-.287 0-.503-.072-.647-.216s-.216-.326-.216-.545c0-.151.024-.309.072-.473.048-.172.123-.37.226-.597.11-.233.25-.504.421-.812.179-.315.395-.689.648-1.121.261-.432.562-.936.905-1.512.35-.575.747-1.244 1.193-2.005zm6.698 3.558c-.075.11-.174.251-.298.422-.116.171-.243.356-.38.555s-.274.408-.412.628c-.137.212-.264.421-.38.627-.11.205-.202.397-.278.576-.068.178-.103.329-.103.452 0 .199.079.298.237.298.144 0 .312-.068.504-.205.199-.137.415-.319.648-.545.233-.233.476-.504.73-.813.253-.308.51-.634.771-.977l.062.042c-.275.349-.542.692-.802 1.028-.261.329-.521.624-.782.884-.254.254-.511.46-.771.617-.254.158-.514.237-.782.237-.233 0-.411-.038-.534-.113-.124-.076-.216-.168-.278-.278-.055-.117-.089-.237-.103-.36-.007-.123-.01-.233-.01-.329l-.031-.021c-.11.131-.23.261-.36.391-.123.13-.26.25-.411.36-.151.103-.309.185-.473.247-.165.068-.34.103-.525.103-.329 0-.579-.096-.75-.288-.165-.199-.247-.514-.247-.946 0-.302.075-.61.226-.926.151-.322.363-.613.638-.874.281-.267.613-.487.997-.658s.806-.257 1.265-.257c.267 0 .47.069.607.206.144.13.236.294.277.493h.021l.267-.534zm-4.082 3.373c.144 0 .329-.092.555-.277.227-.185.449-.422.669-.71.219-.288.408-.6.565-.936.158-.342.237-.668.237-.977 0-.157-.048-.274-.144-.349-.089-.082-.192-.124-.309-.124-.144 0-.291.048-.442.144-.144.096-.288.227-.432.391-.137.158-.271.339-.401.545-.123.199-.233.405-.329.617-.096.206-.171.411-.226.617s-.082.387-.082.545c0 .117.02.233.061.35.048.109.141.164.278.164zm3.225.329 2.129-3.64 1.46-.062c-.493.686-.966 1.385-1.419 2.098l.021.021c.178-.227.377-.47.596-.73.22-.261.449-.501.689-.72.247-.226.497-.415.751-.566.26-.151.517-.226.771-.226.261 0 .476.069.648.206.178.13.267.332.267.606 0 .227-.072.46-.216.7-.137.24-.291.476-.462.709-.172.226-.33.446-.473.658-.138.206-.206.388-.206.545 0 .069.017.131.051.185.041.048.103.072.185.072.151 0 .323-.068.515-.205.191-.144.39-.319.596-.525.158-.157.315-.325.473-.504.158-.185.305-.36.442-.524.137-.171.261-.326.37-.463.11-.144.196-.257.257-.339l.093.051c-.233.309-.483.628-.751.957-.26.329-.524.63-.791.905-.282.287-.556.514-.823.678-.261.158-.528.237-.802.237-.309 0-.542-.089-.699-.268-.151-.185-.227-.421-.227-.709 0-.247.065-.48.196-.699.137-.227.288-.436.452-.628.165-.199.312-.38.442-.545.137-.164.206-.318.206-.462 0-.192-.093-.288-.278-.288-.123 0-.274.065-.452.195-.178.123-.37.288-.576.494-.206.205-.415.435-.627.689-.213.253-.415.507-.607.76-.185.254-.35.494-.494.72-.137.227-.239.412-.308.556zm14.069-7.26c-.576.96-1.073 1.786-1.491 2.479-.412.685-.761 1.271-1.049 1.758-.288.48-.518.874-.689 1.183-.171.301-.305.545-.401.73-.089.185-.151.329-.185.432-.028.096-.041.181-.041.257 0 .082.02.151.061.205.048.048.12.072.216.072.117 0 .281-.068.494-.205.212-.137.428-.316.648-.535.343-.343.637-.682.884-1.018.254-.336.449-.6.586-.792l.093.052c-.158.226-.374.521-.648.884-.267.356-.583.713-.946 1.069-.295.288-.566.497-.812.628-.247.123-.501.185-.761.185-.268 0-.48-.083-.638-.247-.151-.165-.226-.37-.226-.617 0-.075.017-.158.051-.247l-.02-.02c-.24.308-.518.575-.833.802-.309.219-.676.329-1.101.329-.322 0-.562-.107-.719-.319-.158-.213-.237-.463-.237-.751 0-.397.096-.771.288-1.121.199-.349.453-.654.761-.915.308-.26.651-.466 1.028-.617.384-.151.761-.226 1.131-.226.22 0 .398.065.535.195.137.131.23.295.278.494l2.262-4.021zm-4.052 4.083c0-.158-.031-.285-.092-.381-.055-.096-.161-.144-.319-.144-.206 0-.425.103-.658.309-.226.206-.439.456-.638.751-.192.294-.353.606-.483.935-.123.323-.185.604-.185.844 0 .157.027.287.082.39.055.096.148.144.278.144.164 0 .325-.051.483-.154.165-.103.322-.237.473-.401.151-.171.288-.363.411-.576.131-.212.244-.422.34-.627.096-.213.171-.415.226-.607s.082-.353.082-.483zm11.083-2.334c.041.096.076.226.103.39.034.158.051.288.051.391 0 .343-.078.658-.236.946-.151.288-.35.535-.596.741-.247.205-.528.366-.844.483-.315.116-.634.175-.956.175-.213 0-.425-.035-.638-.103-.212-.069-.404-.172-.575-.309-.172-.137-.312-.308-.422-.514-.103-.206-.154-.445-.154-.72 0-.5.178-.956.534-1.367.357-.419.854-.775 1.491-1.07.638-.301 1.402-.534 2.294-.699.891-.171 1.871-.257 2.941-.257.287 0 .582.007.884.02.302.007.593.018.874.031.288.007.559.017.812.031.254.007.477.014.669.021.343.013.589.055.74.123.151.069.226.206.226.411 0 .199-.099.347-.298.443-.192.089-.497.133-.915.133-.213 0-.408-.007-.586-.02-.172-.021-.346-.041-.525-.062-.301.082-.582.199-.843.35-.253.15-.497.342-.73.576-.226.233-.446.514-.658.843-.213.322-.429.699-.648 1.131-.26.521-.548 1.001-.864 1.44-.315.431-.672.805-1.069 1.12-.398.316-.84.563-1.327.741-.486.171-1.035.257-1.645.257-.267 0-.521-.031-.761-.093-.233-.055-.439-.137-.617-.247-.178-.116-.319-.26-.421-.431-.103-.172-.155-.367-.155-.587 0-.102.021-.198.062-.287.041-.096.093-.179.154-.247.069-.076.148-.134.237-.175.096-.048.195-.072.298-.072.178 0 .329.055.452.164.131.103.196.247.196.432 0 .158-.041.292-.124.401-.075.11-.185.189-.329.237.041.281.155.483.34.607.192.116.418.174.678.174.309 0 .59-.054.844-.164.253-.11.486-.261.699-.453.219-.192.421-.414.607-.668.191-.26.373-.535.545-.823.171-.288.339-.582.503-.884.172-.308.347-.61.525-.905.219-.356.463-.665.73-.925.267-.268.555-.497.864-.689.308-.199.634-.364.977-.494.342-.137.695-.254 1.059-.35v-.02c-.165-.007-.343-.017-.535-.031s-.415-.027-.668-.041c-.247-.014-.532-.024-.854-.031-.315-.014-.685-.014-1.11 0-.213 0-.494.01-.844.031-.349.014-.723.051-1.12.113-.398.062-.803.147-1.214.257-.404.103-.771.243-1.1.422-.329.178-.597.397-.802.658-.206.253-.309.562-.309.925 0 .206.052.381.154.525.103.137.234.253.391.349.165.09.346.155.545.196.206.041.412.061.617.061.288 0 .576-.051.864-.154s.545-.24.771-.411c.233-.171.422-.367.566-.586.151-.226.226-.46.226-.699 0-.117-.014-.237-.041-.36-.021-.131-.055-.254-.103-.371zm7.288 2.869c-.157.226-.335.455-.534.689-.192.226-.412.459-.658.699-.473.452-.933.795-1.378 1.028-.446.233-.943.35-1.491.35-.473 0-.833-.11-1.08-.329-.247-.22-.37-.539-.37-.957 0-.363.103-.706.308-1.028.206-.322.463-.603.771-.843.316-.24.655-.432 1.019-.576.37-.144.719-.216 1.048-.216s.6.055.813.165c.212.102.319.274.319.514s-.117.449-.35.627-.511.332-.833.463c-.315.123-.634.226-.956.308-.323.076-.576.134-.761.175-.014.069-.024.137-.031.206-.007.068-.01.137-.01.205 0 .124.013.247.041.371.027.116.072.219.133.308.069.089.155.161.257.216.11.055.244.082.401.082.323 0 .669-.116 1.039-.349.37-.24.744-.539 1.121-.895.24-.233.449-.459.627-.679.185-.219.34-.418.463-.596zm-2.262-.772c0-.192-.096-.288-.288-.288-.151 0-.315.079-.493.237-.172.151-.333.336-.484.555-.144.213-.27.432-.38.658-.11.227-.178.415-.206.566.288-.062.545-.154.771-.278.234-.13.429-.274.587-.432.164-.157.288-.325.37-.504.082-.178.123-.349.123-.514zm6.425.761c-.254.377-.525.734-.812 1.07-.282.336-.597.63-.947.884-.349.254-.74.456-1.172.607-.432.144-.925.216-1.481.216-.205 0-.401-.021-.586-.062-.178-.041-.332-.106-.462-.195-.131-.089-.234-.203-.309-.34-.075-.144-.113-.312-.113-.504 0-.253.082-.452.247-.596.157-.151.343-.226.555-.226.144 0 .267.041.37.123s.154.206.154.37c0 .151-.044.264-.133.34-.089.075-.189.113-.298.113-.083 0-.151-.01-.206-.031-.034.055-.051.12-.051.195 0 .22.058.391.174.514.117.117.288.175.514.175.295 0 .515-.085.659-.257.144-.171.216-.377.216-.617 0-.144-.045-.284-.134-.421s-.189-.275-.298-.412c-.103-.144-.199-.284-.288-.421-.089-.144-.134-.288-.134-.432 0-.165.038-.322.113-.473.076-.151.185-.285.329-.401.151-.124.333-.22.545-.288.213-.069.456-.103.73-.103.398 0 .72.069.967.206.254.13.38.322.38.576 0 .191-.065.349-.195.473-.13.116-.284.174-.463.174-.157 0-.305-.041-.442-.123.048-.075.086-.154.113-.237.028-.082.041-.174.041-.277 0-.172-.041-.326-.123-.463-.075-.137-.202-.206-.38-.206-.158 0-.282.055-.371.165s-.133.254-.133.432c0 .171.051.332.154.483.103.144.212.288.329.432.123.144.236.295.339.452.103.158.155.336.155.535 0 .233-.055.432-.165.597-.103.157-.264.298-.483.421l.02.021c.295-.082.583-.209.864-.381.288-.178.562-.384.823-.617.26-.233.5-.483.72-.75.226-.275.425-.549.596-.823zm-.759-.802.072-.164h.854l.874-1.491 1.429-.052-.925 1.543h1.408l-.082.164h-1.419c-.096.165-.23.381-.401.648-.164.267-.329.545-.493.833-.165.288-.309.566-.432.833-.124.267-.185.487-.185.658 0 .117.03.202.092.257.069.055.161.082.278.082.178 0 .366-.048.565-.144.199-.102.398-.233.597-.39.205-.158.401-.333.586-.525.192-.199.37-.394.535-.586.171-.192.325-.37.462-.535.137-.171.247-.308.329-.411l.083.041c-.233.274-.48.576-.741.905-.26.329-.541.638-.843.926-.302.281-.627.517-.977.709-.349.185-.73.278-1.141.278-.316 0-.552-.083-.71-.247-.151-.171-.226-.391-.226-.658 0-.137.017-.271.051-.401.042-.137.11-.302.206-.494.096-.199.223-.439.381-.72.157-.281.359-.634.606-1.059zm8.772-.247c-.076.11-.175.251-.298.422-.117.171-.244.356-.381.555s-.274.408-.411.628c-.137.212-.264.421-.381.627-.109.205-.202.397-.277.576-.069.178-.103.329-.103.452 0 .199.079.298.236.298.144 0 .312-.068.504-.205.199-.137.415-.319.648-.545.233-.233.477-.504.73-.813.254-.308.511-.634.771-.977l.062.042c-.274.349-.541.692-.802 1.028-.26.329-.521.624-.781.884-.254.254-.511.46-.772.617-.253.158-.514.237-.781.237-.233 0-.412-.038-.535-.113-.123-.076-.216-.168-.278-.278-.054-.117-.089-.237-.102-.36-.007-.123-.011-.233-.011-.329l-.031-.021c-.109.131-.229.261-.359.391-.124.13-.261.25-.412.36-.151.103-.308.185-.473.247-.164.068-.339.103-.524.103-.329 0-.58-.096-.751-.288-.164-.199-.247-.514-.247-.946 0-.302.076-.61.227-.926.15-.322.363-.613.637-.874.281-.267.614-.487.998-.658.383-.171.805-.257 1.264-.257.268 0 .47.069.607.206.144.13.237.294.278.493h.02l.268-.534zm-4.083 3.373c.144 0 .33-.092.556-.277s.449-.422.668-.71c.22-.288.408-.6.566-.936.157-.342.236-.668.236-.977 0-.157-.048-.274-.144-.349-.089-.082-.192-.124-.308-.124-.144 0-.292.048-.442.144-.144.096-.288.227-.432.391-.137.158-.271.339-.401.545-.124.199-.233.405-.329.617-.096.206-.172.411-.227.617-.054.206-.082.387-.082.545 0 .117.021.233.062.35.048.109.14.164.277.164zm6.002.329c.041-.068.113-.185.216-.349.11-.172.23-.364.36-.576.137-.22.278-.449.422-.689.151-.24.284-.466.401-.679.123-.219.223-.411.298-.576.082-.164.123-.281.123-.349 0-.172-.089-.257-.267-.257-.11 0-.25.061-.422.185-.164.123-.346.288-.545.493-.198.199-.404.425-.617.679-.212.247-.414.497-.606.751-.185.253-.353.497-.504.73-.151.226-.267.418-.35.576l-1.388.061c.329-.61.689-1.223 1.08-1.84.391-.624.744-1.231 1.059-1.82l1.481-.042-1.368 2.006.021.02c.144-.178.312-.391.504-.637.191-.247.404-.48.637-.7.24-.226.497-.418.771-.576.281-.157.573-.236.874-.236.24 0 .436.065.586.195.151.124.227.309.227.556 0 .15-.017.281-.052.39-.034.103-.082.213-.144.329l.021.021c.123-.137.26-.291.411-.463.158-.171.326-.332.504-.483.178-.158.367-.288.566-.391.198-.103.404-.154.617-.154.24 0 .442.069.606.206.165.13.247.322.247.576 0 .239-.072.486-.216.74-.144.247-.301.487-.473.72-.171.233-.329.452-.473.658-.144.199-.216.37-.216.514 0 .075.021.141.062.195.048.048.116.072.206.072.137 0 .284-.048.442-.144.164-.102.329-.229.493-.38.172-.158.34-.333.504-.525.172-.198.333-.39.484-.575.15-.192.287-.367.411-.525.123-.164.223-.295.298-.391l.072.062c-.178.233-.391.514-.638.843-.246.329-.51.641-.791.936-.261.281-.532.514-.813.699-.281.179-.582.268-.905.268-.15 0-.284-.028-.401-.083-.109-.048-.198-.113-.267-.195-.069-.089-.12-.185-.154-.288-.035-.103-.052-.206-.052-.308 0-.247.069-.491.206-.73.137-.247.288-.477.452-.689.165-.22.316-.419.453-.597s.206-.325.206-.442c0-.089-.028-.154-.083-.195-.048-.048-.106-.072-.174-.072-.11 0-.247.065-.412.195-.164.123-.346.284-.545.483-.192.199-.391.425-.596.679-.206.254-.401.507-.586.761-.179.254-.343.494-.494.72-.144.226-.257.418-.339.576zm11.794-2.642c-.158.226-.336.455-.535.689-.192.226-.411.459-.658.699-.473.452-.932.795-1.378 1.028-.445.233-.942.35-1.491.35-.473 0-.833-.11-1.08-.329-.246-.22-.37-.539-.37-.957 0-.363.103-.706.309-1.028.205-.322.463-.603.771-.843.315-.24.655-.432 1.018-.576.37-.144.72-.216 1.049-.216s.6.055.812.165c.213.102.319.274.319.514s-.116.449-.35.627c-.233.178-.51.332-.833.463-.315.123-.634.226-.956.308-.322.076-.576.134-.761.175-.014.069-.024.137-.031.206-.006.068-.01.137-.01.205 0 .124.014.247.041.371.028.116.072.219.134.308.068.089.154.161.257.216.11.055.243.082.401.082.322 0 .668-.116 1.039-.349.37-.24.743-.539 1.12-.895.24-.233.449-.459.628-.679.185-.219.339-.418.462-.596zm-2.262-.772c0-.192-.096-.288-.288-.288-.151 0-.316.079-.494.237-.171.151-.332.336-.483.555-.144.213-.271.432-.381.658-.109.227-.178.415-.205.566.288-.062.545-.154.771-.278.233-.13.428-.274.586-.432.165-.157.288-.325.37-.504.083-.178.124-.349.124-.514zm.255 3.414 2.128-3.64 1.46-.062c-.493.686-.966 1.385-1.419 2.098l.021.021c.178-.227.377-.47.596-.73.22-.261.449-.501.689-.72.247-.226.497-.415.751-.566.26-.151.518-.226.771-.226.261 0 .477.069.648.206.178.13.267.332.267.606 0 .227-.072.46-.216.7-.137.24-.291.476-.462.709-.172.226-.329.446-.473.658-.137.206-.206.388-.206.545 0 .069.017.131.051.185.042.048.103.072.185.072.151 0 .323-.068.515-.205.192-.144.39-.319.596-.525.158-.157.315-.325.473-.504.158-.185.305-.36.442-.524.137-.171.261-.326.37-.463.11-.144.196-.257.258-.339l.092.051c-.233.309-.483.628-.751.957-.26.329-.524.63-.791.905-.281.287-.556.514-.823.678-.261.158-.528.237-.802.237-.309 0-.542-.089-.699-.268-.151-.185-.227-.421-.227-.709 0-.247.066-.48.196-.699.137-.227.288-.436.452-.628.165-.199.312-.38.442-.545.138-.164.206-.318.206-.462 0-.192-.092-.288-.278-.288-.123 0-.274.065-.452.195-.178.123-.37.288-.576.494-.206.205-.415.435-.627.689-.213.253-.415.507-.607.76-.185.254-.349.494-.493.72-.138.227-.24.412-.309.556zm6.746-3.455.072-.164h.854l.874-1.491 1.429-.052-.925 1.543h1.409l-.083.164h-1.419c-.096.165-.229.381-.401.648-.164.267-.329.545-.493.833-.165.288-.309.566-.432.833-.124.267-.185.487-.185.658 0 .117.031.202.092.257.069.055.161.082.278.082.178 0 .367-.048.565-.144.199-.102.398-.233.597-.39.205-.158.401-.333.586-.525.192-.199.37-.394.535-.586.171-.192.325-.37.462-.535.138-.171.247-.308.329-.411l.083.041c-.233.274-.48.576-.741.905-.26.329-.541.638-.843.926-.301.281-.627.517-.977.709-.349.185-.73.278-1.141.278-.316 0-.552-.083-.71-.247-.151-.171-.226-.391-.226-.658 0-.137.017-.271.051-.401.042-.137.11-.302.206-.494.096-.199.223-.439.381-.72.157-.281.36-.634.606-1.059z" fill="#0a2d4d"/><path d="m414.84 53.6508h220.1v279.924h-220.1z" stroke="#fffaef" stroke-width="33"/><rect height="334.643" mask="url(#c)" rx="1.12683" stroke="#ffaa05" stroke-width="44" width="270.666" x="389.557" y="26.2916"/><rect height="334.643" mask="url(#d)" rx="1.12683" stroke="#ffd480" stroke-width="36" width="270.666" x="389.557" y="26.2916"/><rect height="334.643" mask="url(#e)" rx="1.12683" stroke="#ffaa05" stroke-width="4" width="270.666" x="389.557" y="26.2916"/><path d="m391.471 28.3401 18.498 18.5393m229.87-.2441 18.49-18.445m-247.751 311.8577-19.226 19.055m248.149-18.852 18.483 18.107" stroke="#ffaa05" stroke-linecap="round" stroke-width="3"/><ellipse cx="893.702" cy="78.4878" fill="#33103f" rx="38.7866" ry="48.3633"/><path d="m894.014 60.6373c-10.816 0-19.584 1.6276-19.584 3.6753v14.4385c0 9.6081 5.198 18.4813 13.598 23.1539l5.933 3.308 5.933-3.308c8.453-4.6726 13.651-13.5458 13.651-23.1539v-14.4385c0-2.0477-8.716-3.6753-19.531-3.6753z" fill="#f3d6ff" stroke="#0a2d4d" stroke-linecap="round" stroke-linejoin="round" stroke-miterlimit="10"/><path clip-rule="evenodd" d="m893.987 141.548c29.155 0 52.789-28.361 52.789-63.3467 0-34.9855-23.634-63.3468-52.789-63.3468-29.154 0-52.789 28.3613-52.789 63.3468 0 34.9857 23.635 63.3467 52.789 63.3467zm0-26.642c15.483 0 28.034-16.4335 28.034-36.7049s-12.551-36.7047-28.034-36.7047-28.034 16.4333-28.034 36.7047 12.551 36.7049 28.034 36.7049z" fill="#cda5dc" fill-rule="evenodd"/><path d="m943.191 78.2013c0 33.6457-22.613 59.7617-49.204 59.7617v7.17c31.719 0 56.374-30.606 56.374-66.9317zm-49.204-59.7617c26.591 0 49.204 26.1164 49.204 59.7617h7.17c0-36.3257-24.655-66.9319-56.374-66.9319zm-49.204 59.7617c0-33.6453 22.614-59.7617 49.204-59.7617v-7.1702c-31.719 0-56.374 30.6062-56.374 66.9319zm49.204 59.7617c-26.59 0-49.204-26.116-49.204-59.7617h-7.17c0 36.3257 24.655 66.9317 56.374 66.9317zm24.449-59.7619c0 9.4196-2.92 17.8145-7.475 23.7779-4.552 5.961-10.586 9.342-16.974 9.342v7.17c9.095 0 17.078-4.836 22.672-12.16 5.592-7.3206 8.947-17.2781 8.947-28.1299zm-24.449-33.1196c6.388 0 12.422 3.3812 16.974 9.3416 4.555 5.9635 7.475 14.3584 7.475 23.778h7.17c0-10.8518-3.355-20.8093-8.947-28.1302-5.594-7.3241-13.577-12.1596-22.672-12.1596zm-24.449 33.1196c0-9.4196 2.92-17.8145 7.475-23.778 4.552-5.9604 10.586-9.3416 16.974-9.3416v-7.1702c-9.095 0-17.078 4.8355-22.672 12.1596-5.592 7.3209-8.947 17.2784-8.947 28.1302zm24.449 33.1199c-6.388 0-12.422-3.381-16.974-9.342-4.555-5.9634-7.475-14.3583-7.475-23.7779h-7.17c0 10.8518 3.355 20.8093 8.947 28.1299 5.594 7.324 13.577 12.16 22.672 12.16z" fill="#733c86" mask="url(#f)"/><path d="m893.987 119.476c9.467 0 17.718-5.035 23.456-12.546 5.734-7.508 9.149-17.6802 9.149-28.7289 0-11.0486-3.415-21.2209-9.149-28.7283-5.738-7.5116-13.989-12.5469-23.456-12.5469s-17.718 5.0353-23.455 12.5469c-5.734 7.5074-9.15 17.6797-9.15 28.7283 0 11.0487 3.416 21.2209 9.15 28.7289 5.737 7.511 13.988 12.546 23.455 12.546z" stroke="#733c86" stroke-width="9.14105"/><path d="m261.187 52.662h86.4044v112.448h-86.4044z" fill="#33103f" stroke="#733c86" stroke-width="1.30586"/><rect fill="#f3d6ff" height="83.5753" rx="10.4469" width="62.6815" x="272.252" y="66.822"/><path clip-rule="evenodd" d="m283.698 82.4923h-2v67.9047h2zm5.918 0h-2v67.9047h2z" fill="#733c86" fill-rule="evenodd"/><path clip-rule="evenodd" d="m272.251 96.8569h62.682v2h-62.682zm0 10.4471h62.682v2h-62.682zm62.682 10.447h-62.682v2h62.682zm-62.682 10.447h62.682v2h-62.682zm62.682 10.447h-62.682v2h62.682z" fill="#733c86" fill-rule="evenodd"/><rect height="82.2694" rx="9.79398" stroke="#733c86" stroke-width="1.30586" width="61.3756" x="272.905" y="67.475"/><path d="m272.905 77.2689c0-5.409 4.384-9.7939 9.793-9.7939h41.788c5.409 0 9.794 4.3849 9.794 9.7939v9.794h-61.375z" fill="#733c86" stroke="#733c86" stroke-width="1.30586"/><path d="m321.297 40.6689.18 1.0042.947-.3786c.769-.3073 1.445-.8171 2.081-1.331.147-.1188.293-.2384.439-.3584.51-.4187 1.026-.8422 1.628-1.2534 1.5-1.0241 3.502-1.9426 6.767-1.9426 1.633 0 2.636.2861 3.264.6275.613.3327.926.7488 1.128 1.1353.107.2034.183.4001.263.6056.004.0121.009.0249.014.0382.064.167.162.423.299.6204.084.1211.221.2795.433.3884.229.1177.473.14.697.0989.372-.0683.689-.314.926-.5214.895-.7838 2.76-2.2559 5.058-3.5272 2.31-1.2788 4.972-2.3062 7.484-2.3062 8.407 0 15.026 5.9388 15.026 13.0389 0 5.2685-2.345 9.8034-7.315 11.8764l-1.505.6277 1.392.8497c1.851 1.13 3.113 2.3725 3.928 3.9861.823 1.6273 1.231 3.71 1.231 6.5872 0 2.5647-1.138 4.8541-2.462 7.5163-.076.1527-.153.3066-.23.4619-1.392 2.8082-2.865 5.9686-2.865 9.949 0 1.9994.371 3.4458.945 4.6863.419.9048.956 1.7089 1.475 2.4875.167.2497.332.4967.491.7436 1.305 2.031 2.646 4.6628 2.646 10.7688 0 6.117-1.299 9.362-2.628 12.185-.134.285-.269.567-.404.848-1.228 2.561-2.435 5.079-2.525 9.238-.099 4.571 1.34 7.128 2.745 9.624l.069.123c1.388 2.469 2.743 4.944 2.743 9.598 0 4.013-2.042 6.257-5.316 9.552l-.8.806 1.01.52c4.455 2.293 7.375 6.489 7.375 11.223 0 7.1-6.619 13.039-15.026 13.039-2.398 0-4.971-.75-7.178-1.789-2.223-1.046-3.957-2.33-4.733-3.302-.258-.323-.562-.617-.943-.771-.428-.173-.837-.126-1.187.02-.311.129-.59.343-.821.531-.122.1-.251.209-.377.317-.13.11-.263.222-.405.337-1.089.881-2.861 2.046-6.496 2.046-3.005 0-4.603-1.01-5.869-2.235-.443-.428-.825-.86-1.225-1.313-.215-.243-.435-.492-.673-.75-.651-.706-1.383-1.413-2.32-1.949l-1.216-.694-.028 1.4c-.15 7.35-6.625 14.991-15.713 14.991-9.128 0-15.708-7.609-15.756-14.98l-.01-1.485-1.261.784c-.892.555-1.568 1.275-2.164 1.982-.197.235-.381.462-.56.683-.386.476-.751.926-1.18 1.367-.603.619-1.282 1.158-2.172 1.549-.891.391-2.037.65-3.593.65-2.994 0-4.487-1.266-5.576-2.311-.072-.069-.145-.14-.219-.211-.202-.196-.407-.395-.598-.562-.261-.23-.572-.47-.932-.614-.392-.157-.827-.193-1.281-.035-.421.146-.793.437-1.137.801-2.277 2.41-7.273 5.543-12.297 5.543-8.406 0-15.025-5.939-15.025-13.039 0-4.839 3.052-9.118 7.676-11.374l1.019-.497-.78-.823c-.831-.877-1.648-1.56-2.373-2.166-.737-.617-1.359-1.137-1.885-1.731-.996-1.125-1.707-2.578-1.745-5.521-.032-2.475 1.069-4.368 2.452-6.744.194-.334.394-.677.596-1.033 1.627-2.851 3.283-6.284 3.183-11.555-.049-2.614-.456-4.549-1.057-6.188-.523-1.427-1.19-2.617-1.842-3.778-.089-.158-.177-.316-.265-.473-1.443-2.594-2.901-5.506-3.067-11.856-.167-6.341 1.293-9.6243 2.805-12.2571.235-.4091.477-.8094.718-1.2086 1.321-2.187 2.622-4.3419 2.708-7.7462.103-4.0535-1.605-6.4881-3.194-8.7529v-.001c-1.577-2.2479-3.037-4.3299-3.037-7.8726 0-3.6844.865-5.2979 2.008-6.3242.607-.5449 1.335-.9634 2.204-1.4225.138-.0726.279-.1462.423-.2214.747-.3898 1.576-.8229 2.409-1.3748l1.328-.8803-1.482-.5862c-5.245-2.0757-8.802-6.6494-8.802-11.8707 0-7.1001 6.619-13.0389 15.025-13.0389 2.709 0 4.638.4606 6.21 1.2097 1.582.7537 2.856 1.824 4.239 3.1386.796.7565 1.58 1.1381 2.455 1.0784.784-.0534 1.501-.4685 2.127-.8302l.002-.0013c.045-.0256.089-.0514.134-.0776 1.28-.7419 2.893-1.6771 5.79-1.6771 3.038 0 4.418.812 5.411 1.7191.347.3167.623.6188.921.9446.189.2056.385.4207.614.655.552.5653 1.196 1.1304 2.084 1.5473l1.158.543.027-1.278c.08-3.7242 2.17-7.0636 5.433-9.4997 3.264-2.4362 7.644-3.9171 12.131-3.9171 8.886 0 16.268 6.2461 17.576 13.5456zm-61.55 9.5079h-.831v.8317 115.4975.831h.831 88.868.832v-.831-115.4975-.8317h-.832z" fill="#cda5dc" stroke="#733c86" stroke-width="1.66329"/><rect height="116.366" rx="1.9588" stroke="#733c86" stroke-width="2.61173" width="90.322" x="259.228" y="50.7032"/><path d="m248.042 53.7597s-6.672-8.0781-1-13.6916c5.671-5.6135 13.573 0 13.573 0m86.545 0s9.581-3.5825 14.296 1.724c4.714 5.3064-2.301 11.9676-2.301 11.9676m-13.784 120.1523s7.146 7.469 13.784 2.137c6.637-5.331 0-11.492 0-11.492m-66.983 13.787s3.803 8.978 12.356 8.628c8.554-.349 10.311-10.923 10.311-10.923m-67.797-11.492s-4.305 7.693 1.135 12.787c5.439 5.095 15.073-2.365 15.073-2.365m28.922-134.9109s1.691-8.1006 10.694-8.8667c9.003-.7662 11.973 8.5907 11.973 8.5907" stroke="#733c86" stroke-linecap="round" stroke-linejoin="round" stroke-width="2.61173"/><path d="m210.665 208.506c0 36.089-27.979 65.345-74.559 65.345-46.5795 0-72.9281-29.256-72.9281-65.345s26.3486-65.344 72.9281-65.344c46.58 0 74.559 29.255 74.559 65.344z" fill="#33103f"/><path clip-rule="evenodd" d="m136.106 259.521c28.175 0 51.015-22.84 51.015-51.015 0-28.174-22.84-51.014-51.015-51.014-28.174 0-51.0144 22.84-51.0144 51.014 0 28.175 22.8404 51.015 51.0144 51.015z" fill="#ffaa05" fill-rule="evenodd"/><path clip-rule="evenodd" d="m136.106 245.917c20.661 0 37.411-16.749 37.411-37.411 0-20.661-16.75-37.41-37.411-37.41s-37.4106 16.749-37.4106 37.41c0 20.662 16.7496 37.411 37.4106 37.411z" fill="#ffe3ac" fill-rule="evenodd"/><path clip-rule="evenodd" d="m132.101 197.582c0-2.189 2.053-3.215 4.516-3.215.615 0 1.436 0 2.257.136.89.137 1.164.342 1.369 1.3l.752 4.242 10.332.479v-12.247c-3.763-1.026-6.09-1.505-8.484-1.779v-5.199h-13.205v5.815c-6.089 1.711-10.537 5.884-10.537 13.547 0 15.531 20.389 11.084 20.389 17.789 0 2.463-1.984 3.831-4.721 3.831-1.368 0-2.463-.136-3.215-.41-.548-.137-.89-.411-.958-1.232l-.684-4.31-10.4-.684v12.041c2.737 1.3 6.021 1.985 9.236 2.258v5.747h13.205v-6.294c6.09-1.642 10.537-5.952 10.537-13.821 0-15.462-20.389-11.973-20.389-17.994z" fill="#ffaa05" fill-rule="evenodd"/><path d="m103.644 128.085c-6.5265 2.557-4.4771 14.618-4.4771 14.618h75.8531s2.039-9.298-4.433-14.618c-6.473-5.32-25.421-4.256-25.421-9.253 0-3.633-2.946-6.579-6.579-6.579h-3.35c-3.721 0-6.78 2.859-6.78 6.579 0 4.199-18.287 6.696-24.813 9.253z" fill="#ffe3ac"/><path d="m169.543 287.618c6.526-2.558 4.477-14.618 4.477-14.618h-75.8533s-2.0393 9.298 4.4333 14.618c6.473 5.32 25.421 4.256 25.421 9.252 0 3.634 2.945 6.58 6.579 6.58h3.35c3.72 0 6.78-2.859 6.78-6.58 0-4.198 18.287-6.695 24.813-9.252z" fill="#ffe3ac"/><path clip-rule="evenodd" d="m136.106 284.813c41.363 0 74.894-34.186 74.894-76.356s-33.531-76.355-74.894-76.355c-41.3627 0-74.8938 34.185-74.8938 76.355s33.5311 76.356 74.8938 76.356zm-.215-10.962c36.08 0 65.328-29.256 65.328-65.345s-29.248-65.344-65.328-65.344c-36.0789 0-65.327 29.255-65.327 65.344s29.2481 65.345 65.327 65.345z" fill="#ffd480" fill-rule="evenodd"/><path d="m135.5 274c35.637 0 64.5-29.117 64.5-65s-28.863-65-64.5-65c-35.6374 0-64.5 29.117-64.5 65s28.8626 65 64.5 65z" stroke="#ffaa05" stroke-width="4"/><path clip-rule="evenodd" d="m177.633 67.1632c0 4.2582 3.452 7.7102 7.711 7.7102 4.258 0 7.71-3.452 7.71-7.7102s-3.452-7.7102-7.71-7.7102c-4.259 0-7.711 3.452-7.711 7.7102zm4.01.0001c0 2.0441 1.657 3.7011 3.701 3.7011s3.701-1.657 3.701-3.7011c0-2.044-1.657-3.701-3.701-3.701s-3.701 1.657-3.701 3.701z" fill="#733c86" fill-rule="evenodd"/><path clip-rule="evenodd" d="m152.881 67.1633c0 10.5517 6.439 19.1056 14.381 19.1056s14.38-8.5539 14.38-19.1056c0-10.5518-6.438-19.1057-14.38-19.1057s-14.381 8.5539-14.381 19.1057zm19.688-4.1037c0-2.9315-2.376-5.3079-5.308-5.3079-2.931 0-5.308 2.3764-5.308 5.3079v8.2072c0 2.9315 2.377 5.3079 5.308 5.3079 2.932 0 5.308-2.3764 5.308-5.3079z" fill="#733c86" fill-rule="evenodd"/><rect fill="#733c86" height="3.80147" rx="1.90074" transform="matrix(0 1 -1 0 215.3446 -92.5414)" width="11.3978" x="153.943" y="61.4016"/><rect fill="#733c86" height="3.80147" rx="1.90074" transform="matrix(0 1 -1 0 168.3916 -45.5884)" width="11.3978" x="106.99" y="61.4016"/><path d="m155.955 63.5278v7.5135h-72.1983c-2.0748 0-3.7567-1.682-3.7567-3.7567 0-2.0748 1.6819-3.7568 3.7567-3.7568z" fill="#733c86"/><path clip-rule="evenodd" d="m100.316 71.8145c.001.0202.001.0405.001.0608v9.1472c0 .9623-.78 1.7423-1.7423 1.7423-.9622 0-1.7423-.78-1.7423-1.7423v-2.6465c0-.2762-.2238-.5-.5-.5h-1.8722c-.2762 0-.5.2238-.5.5v2.6465c0 .9623-.7801 1.7423-1.7423 1.7423-.9623 0-1.7423-.78-1.7423-1.7423v-2.6465c0-.2762-.2239-.5-.5-.5h-1.4807c-.2762 0-.5.2238-.5.5v2.6465c0 .9623-.7801 1.7423-1.7423 1.7423-.9623 0-1.7423-.78-1.7423-1.7423v-3.1462c0-.0002-.0002-.0003-.0003-.0003-.0002 0-.0004-.0002-.0004-.0004v-8.4621c0-.2762.2239-.5.5-.5h14.8064c.276 0 .5.2238.5.5z" fill="#733c86" fill-rule="evenodd"/><path d="m300.125 235.959v-7.226h56.553c1.028 0 1.861.833 1.861 1.861v3.504c0 1.028-.833 1.861-1.861 1.861z" fill="#ffaa05"/><rect fill="#ffaa05" height="2.07836" rx="1.03918" transform="matrix(0 -1 1 0 67.826 543.14)" width="10.6227" x="305.483" y="237.657"/><rect fill="#ffaa05" height="2.07836" rx="1.03918" transform="matrix(0 -1 1 0 55.678 530.992)" width="10.6227" x="293.335" y="237.657"/><ellipse cx="291.364" cy="232.346" fill="#ffaa05" rx="4.54508" ry="3.01039" transform="matrix(0 -1 1 0 59.018 523.71)"/><path d="m302.341 227.035c2.423 0 4.388 2.378 4.388 5.311s-1.74 5.311-4.388 5.311-4.833-2.259-5.976-2.259-2.379 0-2.379 0v-6.104h2.379c1.375 0 3.006-2.259 5.976-2.259z" fill="#ffaa05"/><path d="m356.481 251.13c0 .514-.417.93-.931.93h-9.322c-.514 0-.931-.416-.931-.93v-8.586c0-.514.417-.93.931-.93h5.304c.514 0 .931-.417.931-.931v-4.724h4.018v8.742c0 .514-.417.931-.931.931h-5.304c-.514 0-.931.416-.931.93v.55c0 .514.417.93.931.93h5.304c.514 0 .931.417.931.931z" fill="#ffaa05"/><path d="m349.315 235.959h-4.018v3.184c0 .514.417.93.931.93h2.157c.514 0 .93-.416.93-.93z" fill="#ffaa05"/><path clip-rule="evenodd" d="m288.349 244.656c-.161 5.787-4.682 10.426-10.236 10.426-2.692 0-5.142-1.091-6.97-2.874-1.522 1.444-3.554 2.325-5.784 2.325-4.722 0-8.55-3.949-8.55-8.821 0-1.675.452-3.24 1.237-4.574-4.517-.455-8.046-4.335-8.046-9.054 0-4.858 3.739-8.826 8.447-9.085-.78-1.274-1.229-2.769-1.229-4.368 0-4.651 3.798-8.421 8.483-8.421 2.157 0 4.126.8 5.623 2.117 1.808-1.688 4.205-2.715 6.835-2.715 5.601 0 10.148 4.661 10.194 10.429 1.848 3.028 3.011 7.419 3.011 12.304 0 4.889-1.164 9.283-3.015 12.311zm-4.107-.636c0-3.514-2.527-6.363-5.644-6.363s-5.644 2.849-5.644 6.363 2.527 6.363 5.644 6.363 5.644-2.849 5.644-6.363zm-5.644-30.23c3.117 0 5.644 2.849 5.644 6.363 0 3.515-2.527 6.364-5.644 6.364s-5.644-2.849-5.644-6.364c0-3.514 2.527-6.363 5.644-6.363zm-18.619 12.971c-2.825 0-5.273 2.479-5.273 5.201s2.103 4.964 4.928 4.928 4.677-.695 5.236.767c.56 1.461-.427 2.035-1.999 3.481-1.572 1.445-2.179 2.923-2.179 4.574 0 2.722 2.179 4.671 4.667 4.671 2.448 0 4.728-2.527 4.433-4.671s-2.592-6.983 2.081-10.337c4.674-3.354 11.425 0 11.425 0s1.357-1.041 1.416-3.03-1.416-3.109-1.416-3.109-8.122 3.703-11.974 0c-3.853-3.704-1.571-8.664-1.141-10.605s-1.292-4.265-4.482-4.265c-2.722 0-4.61 2.077-4.61 4.265s1.483 4.368 2.716 4.982c1.234.615 2.098 1.743 1.552 2.637-.546.895-2.555.511-5.38.511z" fill="#ffaa05" fill-rule="evenodd"/><circle cx="272.532" cy="241.569" fill="#ffd480" r="2.98155" stroke="#ffaa05" stroke-width="1.86085" transform="matrix(0 -1 1 0 30.963 514.101)"/><circle cx="272.532" cy="223.123" fill="#ffd480" r="2.98155" stroke="#ffaa05" stroke-width="1.86085" transform="matrix(0 -1 1 0 49.409 495.655)"/><path d="m760.239 316.362h11.6529v288.15h-11.6529z" fill="#502160"/><path d="m797.344 287.346h11.6529v288.671h-11.6529z" fill="#502160"/><path d="m834.449 253.113h11.6529v294.41h-11.6529z" fill="#502160"/><path d="m871.554 222.935h11.6529v296.095h-11.6529z" fill="#502160"/><path d="m908.659 191.855h11.6529v298.681h-11.6529z" fill="#502160"/><path d="m945.763 158.073h11.6529v303.969h-11.6529z" fill="#502160"/><path d="m982.868 127.445h11.6529v306.103h-11.6529z" fill="#502160"/><path d="m1019.97 98.951h11.6529v306.103h-11.6529z" fill="#502160"/><path d="m713.519 346.912h441.288v28.9156h-441.288z" fill="#733c86" transform="matrix(.76040597 -.64944805 .64944805 .76040597 -54.346426 546.511568)"/><path d="m720.935 360.666h441.288v6.46093h-441.288z" fill="#502160" transform="matrix(.76040597 -.64944805 .64944805 .76040597 -61.502105 554.623251)"/><g fill="#733c86"><path d="m711.417 385.422c.07-2.887 2.43-5.192 5.319-5.192h10.934c2.882 0 5.24 2.295 5.318 5.176l3.811 140.589c.081 2.994-2.323 5.464-5.318 5.464h-18.129c-2.989 0-5.391-2.46-5.319-5.448z"/><rect height="5.22758" rx="2.61379" width="27.1535" x="708.846" y="375.002"/><rect height="5.2275" rx="2.61375" width="29.0626" x="707.893" y="314.195"/><path d="m709.094 311.192c1.474-3.683 5.013-6.123 8.98-6.191l8.002-.137c4.139-.07 7.909 2.373 9.535 6.181.637 1.492-.458 3.15-2.081 3.15h-22.403c-1.549 0-2.608-1.565-2.033-3.003z"/><rect height="5.2275" rx="2.61375" width="32.2692" x="706.226" y="369.775"/><rect height="50.3523" rx="7.09335" width="36.9075" x="703.971" y="319.423"/><ellipse cx="722.425" cy="292.864" rx="15.3" ry="13.899"/><path clip-rule="evenodd" d="m719.281 46.0611c0 5.307-4.302 9.6092-9.609 9.6092s-9.609-4.3022-9.609-9.6092c0-5.3069 4.302-9.6091 9.609-9.6091s9.609 4.3022 9.609 9.6091zm-5.275 0c0 2.3933-1.94 4.3335-4.334 4.3335-2.393 0-4.333-1.9402-4.333-4.3335 0-2.3934 1.94-4.3336 4.333-4.3336 2.394 0 4.334 1.9402 4.334 4.3336z" fill-rule="evenodd"/><path clip-rule="evenodd" d="m707.788 36.4519c0 5.307-4.302 9.6091-9.609 9.6091s-9.609-4.3021-9.609-9.6091 4.302-9.6091 9.609-9.6091 9.609 4.3021 9.609 9.6091zm-4.94-.5447c0 2.2779-1.847 4.1246-4.125 4.1246-2.277 0-4.124-1.8467-4.124-4.1246s1.847-4.1245 4.124-4.1245c2.278 0 4.125 1.8466 4.125 4.1245z" fill-rule="evenodd"/><path clip-rule="evenodd" d="m719.281 25.9007c0 5.307-4.302 9.6092-9.609 9.6092s-9.609-4.3022-9.609-9.6092c0-5.3069 4.302-9.6091 9.609-9.6091s9.609 4.3022 9.609 9.6091zm-5.087 0c0 2.4975-2.024 4.522-4.522 4.522-2.497 0-4.522-2.0245-4.522-4.522 0-2.4974 2.025-4.522 4.522-4.522 2.498 0 4.522 2.0246 4.522 4.522z" fill-rule="evenodd"/><ellipse rx="5.12599" ry="2.60368" transform="matrix(.00000004 1 1 -.00000004 724.411 35.9808)"/><ellipse rx="5.12599" ry="2.60368" transform="matrix(.00000004 1 1 -.00000004 762.327 35.9808)"/><ellipse rx="4.01055" ry="1.85133" transform="matrix(.00000004 1 1 -.00000004 795.524 35.9809)"/><path d="m714.421 29.7614c-.549-.1738-1.147-.1025-1.639.1958l-6.961 4.2134c-1.261.7631-1.291 2.5814-.057 3.3863l6.986 4.5548c.51.3325 1.144.4146 1.722.223l9.718-3.2218c.203-.0673.416-.1016.629-.1016l67.653-.0001c1.105 0 2-.8954 2-2v-2.0607c0-1.1046-.895-2-2-2h-67.666c-.205 0-.409-.0315-.604-.0933z"/><circle r="3.03042" transform="matrix(.00000004 1 1 -.00000004 798.555 35.9809)"/><path clip-rule="evenodd" d="m771.447 54.3604c-.553 0-1-.4477-1-1v-14.3555c0-.5523.447-1 1-1h16.676c.552 0 1 .4477 1 1v14.3555c0 .5523-.448 1-1 1h-2.219c-.953 0-1.54-1.4203-1.181-2.3027.271-.6678.421-1.4021.421-2.173 0-3.0821-2.399-5.5807-5.359-5.5807s-5.36 2.4986-5.36 5.5807c0 .7709.15 1.5052.421 2.1731.359.8823-.228 2.3026-1.18 2.3026z" fill-rule="evenodd"/></g></g></svg>